<?xml version="1.0" standalone="no"?>
<!DOCTYPE svg PUBLIC "-//W3C//DTD SVG 20010904//EN"
 "http://www.w3.org/TR/2001/REC-SVG-20010904/DTD/svg10.dtd">
<svg version="1.0" xmlns="http://www.w3.org/2000/svg"
 width="70.000000pt" height="70.000000pt" viewBox="0 0 70.000000 70.000000"
 preserveAspectRatio="xMidYMid meet">
<metadata>
Created by potrace 1.11, written by Peter Selinger 2001-2013
</metadata>
<g transform="translate(0.000000,70.000000) scale(0.100000,-0.100000)"
fill="#000000" stroke="none">
<path d="M150 485 l0 -185 71 0 c83 0 83 11 8 -147 -51 -107 -62 -146 -34
-123 8 7 15 18 16 24 0 6 15 42 33 79 l32 68 27 -21 c15 -12 27 -18 27 -15 0
4 7 2 15 -5 28 -23 111 -16 156 14 39 26 40 28 23 47 -17 19 -17 19 -49 -1
-36 -22 -85 -26 -118 -9 -29 16 -57 52 -49 64 4 5 7 12 7 15 0 3 15 38 33 78
37 80 52 87 118 56 39 -19 64 -13 64 14 0 22 -69 57 -106 54 -20 -1 -22 1 -14
16 20 36 54 117 52 125 -1 4 3 7 8 7 6 0 10 7 10 15 0 30 -22 14 -43 -32 -11
-27 -20 -51 -19 -55 1 -5 -3 -8 -8 -8 -6 0 -10 -7 -10 -15 0 -8 -4 -23 -10
-33 -5 -9 -23 -47 -39 -83 -16 -37 -35 -68 -43 -71 -11 -4 -56 -3 -88 1 -6 1
-10 60 -10 156 l0 155 -30 0 -30 0 0 -185z"/>
<path d="M360 119 c0 -5 9 -9 20 -9 25 0 27 -30 3 -31 -10 -1 -21 -1 -25 0 -5
0 -8 -6 -8 -14 0 -8 0 -18 -1 -22 0 -4 5 -9 12 -12 8 -2 10 2 6 13 -8 21 1 20
25 -1 10 -9 21 -13 25 -9 4 4 1 11 -6 15 -7 5 -10 14 -7 20 10 16 26 14 26 -4
0 -22 41 -44 71 -38 22 4 25 10 24 39 -1 39 -17 59 -48 59 -24 0 -48 -16 -40
-27 8 -14 -6 -9 -26 9 -23 19 -51 26 -51 12z m143 -30 c8 -12 7 -21 -4 -31
-26 -27 -65 1 -48 35 12 21 37 19 52 -4z"/>
<path d="M280 101 c-5 -11 -10 -26 -10 -35 0 -8 -6 -16 -12 -19 -21 -7 0 -20
37 -22 41 -3 45 1 34 35 -7 25 -7 25 -14 3 -4 -13 -13 -19 -21 -16 -18 7 -13
26 8 35 11 4 15 13 12 23 -8 20 -21 19 -34 -4z"/>
</g>
</svg>
